/* XPM */
static char *YnJpcXVlMyslMjgxJTI5[] = {
/* columns rows colors chars-per-pixel */
"64 64 167 2 ",
"   c #717070",
".  c gray44",
"X  c #717171",
"o  c #727272",
"O  c #767676",
"+  c #737272",
"@  c #727171",
"#  c gray46",
"$  c #747474",
"%  c gray45",
"&  c gray39",
"*  c #626262",
"=  c #8C8C8B",
"-  c gray47",
";  c #646464",
":  c #5C5B5B",
">  c #7F7F7E",
",  c #797979",
"<  c #777777",
"1  c #757474",
"2  c gray40",
"3  c #656565",
"4  c #8F8F8E",
"5  c #6F6F6F",
"6  c #5A5A5A",
"7  c #7E7E7E",
"8  c #747373",
"9  c #676767",
"0  c #8D8D8C",
"q  c #807F7F",
"w  c #6F6E6E",
"e  c #5D5D5D",
"r  c #808080",
"t  c gray43",
"y  c #6D6D6D",
"u  c #5E5D5D",
"i  c gray52",
"p  c #828281",
"a  c #7B7B7B",
"s  c #51524F",
"d  c #787777",
"f  c #646363",
"g  c #5C5C5B",
"h  c #818181",
"j  c gray49",
"k  c #706F6F",
"l  c #6C6C6C",
"z  c #6A6A6A",
"x  c gray42",
"c  c #6E6D6D",
"v  c #605F5F",
"b  c #555555",
"n  c #7C7C7C",
"m  c #6D6C6C",
"M  c DimGray",
"N  c #585858",
"B  c #6E6E6D",
"V  c gray38",
"C  c #5F5F5F",
"Z  c gray36",
"A  c #5B5A5A",
"S  c #5D5C5C",
"D  c #5F5E5E",
"F  c gray34",
"G  c #606060",
"H  c #565656",
"J  c gray37",
"K  c #5B5B5B",
"L  c gray35",
"P  c #595858",
"I  c #565655",
"U  c #686868",
"Y  c #696968",
"T  c #696868",
"R  c #6B6A6A",
"E  c #666665",
"W  c #676766",
"Q  c #6A6969",
"!  c #7D7D7C",
"~  c #7E7E7D",
"^  c #80807F",
"/  c #7C7C7B",
"(  c #818180",
")  c #838382",
"_  c gray51",
"`  c #818080",
"'  c #7F7E7E",
"]  c #8B8B8B",
"[  c #8B8B8A",
"{  c #8E8E8D",
"}  c #898988",
"|  c #8A8A89",
" . c gray54",
".. c #878786",
"X. c #838383",
"o. c #888888",
"O. c #868685",
"+. c #868686",
"@. c #848484",
"#. c #7B7B7A",
"$. c #858584",
"%. c #767575",
"&. c #777676",
"*. c gray48",
"=. c #7B7A7A",
"-. c #888887",
";. c #727271",
":. c #686767",
">. c gray53",
",. c #737372",
"<. c #585757",
"1. c #6F6F6E",
"2. c #676666",
"3. c #575656",
"4. c #747473",
"5. c #797878",
"6. c #898989",
"7. c #545453",
"8. c #717170",
"9. c #6C6B6B",
"0. c #6B6B6A",
"q. c #626161",
"w. c #616060",
"e. c #585857",
"r. c gray33",
"t. c #50514F",
"y. c #515151",
"u. c #535453",
"i. c #535353",
"p. c gray32",
"a. c #5D5D5C",
"s. c #555554",
"d. c #626261",
"f. c #636362",
"g. c #646463",
"h. c #848483",
"j. c #7E7D7D",
"k. c gray55",
"l. c #8D8D8D",
"z. c gray50",
"x. c #7C7B7B",
"c. c #7A7A79",
"v. c #797978",
"b. c #525251",
"n. c #535352",
"m. c #595956",
"M. c #656464",
"N. c #555454",
"B. c #585957",
"V. c #636262",
"C. c #5B5B5A",
"Z. c #51514F",
"A. c #5A5959",
"S. c #5A5A59",
"D. c #6D6D6C",
"F. c #6C6C6B",
"G. c #919190",
"H. c #70706F",
"J. c #686867",
"K. c #6A6A69",
"L. c #8E8E8E",
"P. c #60605F",
"I. c #565555",
"U. c #616160",
"Y. c #545353",
"T. c #828181",
"R. c gray56",
/* pixels */
"  . X o o O + + o @ # $ @ % @ o o & * = - @ % o X   + + X + + % X . @ # % + @ X % @ ; : > , $ % % o X .   X $ $ $ % @ @ # % o % ",
"X . . @ o < 1 % X . @ o @ X X $ % 2 3 4 , 5 . X . $ O X . @ @ @ @ . o # $ % @ % % o * 6 7 , # # % @ @ . X @ % % $ 8 @ @ % @ X 5 ",
"@ @ @ @ + $ $ o o + @ @ X . X X X 9 3 0 , . X 8 $ $ %       . @ o @ @ % # < @ @ @ o * : q < o 8 $ + % o X @ % $ # % $ + @ @ X X ",
"% X . @ $ # < $ % + @ @ o o % $ w & ; = ,   o # # # o   . @ o @ . 5 X @ o $ X   X + 3 e r , % X o + % o . o $ < - $ # % @ + @ o ",
"% % t o # O # $ % % + % % % % $ y ; u i , @ 8 O # % o % % @ % % . t o + @ @ @ X . + 3 e p a $ . @ + $ o . % # < O $ % % 8 $ o + ",
"% % 5 % < $ $ # + 1 $ 8   X . . 5 3 s 7 d 8 < $ % o o # # % o @ o o + $ @ X $ + o X f g h j % k X % $ @ 5 + % $ $ + o $ $ % k 5 ",
"y l z x z y l c x y l x z ; 9 x 9 v b n % t y m l x l z M M 2 x x l M M z x x 9 2 3 e N B l ; V 3 2 2 ; * ; 2 3 3 3 3 M 3 3 f C ",
"u Z A g e v S u C C Z D e F S G N N H V G J e J J C G Z : J C e J V J K K 6 K L F N P I 6 6 A 6 Z K K 6 L 6 Z : L L 6 Z L Z 6 F ",
"9 2 U Y T L Z 9 2 9 2 9 3 & U R E 2 2 U 9 M ; & & 2 M 2 W Q H K 5 ! ~ ^ ~ ~ ^ 7 / ~ h h ( ) h _ _ _ _ _ ^ ` n G o p h r ' h ~ ~ ",
"= 0 ] = [ Z z { 4 } | = [ | | { } } } | ] 0 |  ...= = } } X.K T ] o.O.+.i X.h h @.@.i i p +.O.X.i i i i +.@.#.J @ | ..$.p @.X.X.",
"%.% # $ X 6 9 $.# $ &., *.# # < < &.&.# - %.O % o - < % o 2 F 3  .=.% + $ +   o $ o + % @ % + + $ % @ k X X M Z X -.1   + $ < $ ",
"+ . + . l L z ..o % % $ - 8 @ 8 $ % X $ o % + . . 8 $ $ % Q 6 3 -.a $ % % + . o % X $ $ o % @ + $ % % + 1 o 9 6 ;.-.%.% + X % % ",
"$ @ O 1 m 6 U O.+ % 5 k X @ @ % o o o o @ $ $   o + @ + o x K :.>.*.% @ o +   # + . < O # o t   $ $ 8 @ % % M e ,.-.O @ @   . % ",
"@ o # o l 6 U $.% @ o % @ @ + o X @ % $ % % $ @ % + % $ X z <.U +.O % o o o @ o % % # $ % o 5 # o @ @ $ 1 @ Q 6 1.>.O @ @ + X @ ",
"$ $ O o l L 2.[ a @ %   @ o o X + X o &.# o % + @ @   8 o M 3.3 o.*.# % $ % X $ 8 1 % % # o 5 # o o $ % $ @ T e 4.| &.% % @ @ % ",
"% o O % l 6 z | 5.X @ t X % % o $ % + %   . @ X + X . 8 o M P 3 -., $ $ < # % # # O < O # % . @ @ @ o % $ 8 T Z % -.O + @ . @ % ",
"o + % k x P U 6.*.% @ X @ % # 8 $ % @ % + X @ @ o . @ o . U F 3 6.*.% O $ # # + % $ < O # %   o % o @ % o X 2.P o 6., # X o + $ ",
"+ 1 X X x 7.W 0 *.+ o % % o + + + % X % @ + o O % @ @ . . z Z :.>., @ 1 $ +   % @ % # O O O $ < $ @ % # $ @ 2 H 8. .< X @ $ % + ",
"o X o . x F 3 ] $ . X   o . w 5 . o 5 $ o o o o X . @ o X U 6 9 $.# . y 5 X . o t . . X o o   o t y y y t 9.9 Z 0.) t z z y y l ",
"2 & & * G K u $ ; ; 2 2 ; * V * 2 ; * 3 2 2 9 2 & 3 9 9 2 3 K e o z 9 3 q.w.2 ; v V V V V D q.2 V G J G v S u Z e.w.L Z D G J u ",
"b P P P b r.t.b y.H H F L F F <.<.u.s i.H N N A 6 K <.<.A P b p.H F L L C 3 z U & 3 a.s.& 3 3 U ; 3 & 3 3 ; d.d.d.f.V d.* f.3 g.",
"i } -...$.O.-.>.h.$.-.[ | ....@.O.8 N j.$.$.X.$.....O...} } $.-...O.$.p -.4 = 0 { { O C r = [ 4 { ] [ { k.] ] 0 [ ] ] ] 4 4 4 l.",
"( ) X.r h @._ z.r p @.O.( ^ @.X.r t r.( $._ h p ) ^ j j r h 7 n *.x.n a *./ *.c.c.a x e r p =.#.! v.- c.j #.c.! *., *.*.a 7 j =.",
"$ @ $ O 8 # # % % + $ *.$ @ 1 $ o ; b.) ) % $ % $ @ o o @ % o % 1 % X # O # # # X # M Z r ^ $ O % 8 # X O < $ $ # o o @ $ - # @ ",
"% o # O % O # % @ + % $ % % # $ t * b._ r 8 $ $ # # % % + @ @ % $ < # $ $ # + % o @ z G X.r $ $ % X % + $ % % # $ o o X % % % % ",
"% $ + o % # O o @ . % # # % % % x V b.r > o $ % $ + % % @ o @ % $ % o % @ + # % $ $ M J ) r O < o o % % % o % % # +   y + $ # # ",
"# % @   o o % o X . o % $ % + X l & n.@.z.o % @ % O < # $ + @ % $ % O % X   o o % X 9 m.( h - # + % % % o o % X + o X X o % $ # ",
"% $ + + + X o % @ % % @ + + @ @   M.N.@.^ o 8 + $ %.# # O + o % % # # $ + @ + X 5 X ; B.z.( O % $ % o # $ % % X     . % % % X @ ",
"+ % + # $ + X   5 o @ X o @ % + . V.b h.p % 1 $ % % o   o + $ + + O # $ +   @ + . 5 M.Z r > $ # % $ % % % # % + X X . o + % % % ",
"$ % % O $ % o X . + + @ + % # % w V i.X.X.1 % % o @ + @ o % $ . X + # $ @   o + @ o :.C.' j % $ o $ $ $ % # O # % o @ @ + o X 8 ",
"O X + $ < # # $ + + X @ o < $ X k & i.h ) $ # + @   + + o o X @ o o # # % @ $ o @ % M A j / X t @ $ $ @ X X $ % $ % X   . 5 X $ ",
"y x x x m 9.l y l x z M z y R U 9 * H z.j y l l x l w m z t l l y t y . y l l x x M q.A j , z 3 3 2 2 2 2 3 3 ; 2 3 ; 3 ; & ; 2 ",
"P e Z Z e e e e A Z Z e e Z K K P K Z.J J Z Z K F 6 e K A.K A.Z K e K Z A S.Z Z e e S b F N N r.L L H F A L : A.L A.N P L : : A ",
"D.x 0.y . L Z . B B t . . 5 l y x l 0.l 0.D.8.. x y . t y y F A.z z l 5 D.F.l l < > _ _ q h _ > r ` z.a ! j.*.C M q 7 7 7 ( _ ^ ",
"0 6.-.k.| C M G.= k.0 = { = = { ] [ [ [ ] [ 4 {  .= 0 0 0 4 C E 0 0 -.} o.-.-.O.-.} o...i O.+.i O...O.p @.+.7 V o = ..-.O.+.o.h.",
"O # # $ . Z U [ 7 7 , - - O # O < %.< , < %.- , - &.&.< - o V :.>.,   k o % @ @ o o o % 1 + o # % + @ X + o 9 K H.} / *.O $ % + ",
"X + # % m L 9 [ a $ 8 $ @   5 5 $ % # O $ X % # $ @ @ # $ 5 K E 6.#.+ . . @ X X $ o X + % @ X % < %.8 $ % # z e 1 | < @ o # 8 o ",
"% % $ $ y Z x ] - 5   % % @ @ @ O $ $ $ < o $ # % 5 o # $ x N :.6.*.8 @ k .   .   @ 8 $ $ % % $ O %.8 + % % t J % o.< t k $ % + ",
"+ + % % t Z U  .< .   X % % % $ # % + # O % 8 $ $ k 8 $ # m K :.} , @   t   X 5 5 % $ % $ % $ < % # # @ % o t e X -.O @ X $ $ + ",
"# $ o . x e U 6.5.% % $ % % $ % $ % $ < + % o   +   o . o M Z 2.$.d $ $ % O < # % % X @ % + % # % % + X @ 5 z Z 8.-.O $ @ % + % ",
"o X 5 . l L :.| < o @ 1 8 $ < # $ % o $ o 8 < $ %   @ 5 % y C J.$.< $ # # # $ # $ o X   + % % % # % @ X . 5 9.Z % 6.%.@ X O $ O ",
"  . y o y N U | # % % , O < < # # % @ @ @ o $ % O @ @ % % y J M >., + # # $ % O O % % o + % % # 8 @ @ % 5 X X q.@ o.%.o o < O # ",
"+ @ X + w 6 U } - # % # $ $ $ $ O % $ % k % % X $ $ o $ % m e 2.+.O % $ $ # # # 8 + % o $ < 8 $ + o @ % o k   V . ..O # . % % $ ",
"  X   @ w 6 K.L.- c l . @ t k 5 % . . . k     y 5 l l 5 5 z L ; [ a . t t t 5 5 5 5 l y .   5   5 5 . X X k y G o O.8 y U y y l ",
"& M.& ; ; L P.+ U M.& ; ; C G G & * w.V G V ; G * V V.& 3 f L S.8.z 3 C J G * V ; * & * G G V & G G C J S S g S.e * u C Z J S A ",
"b P F H F r.I.F N 6 P A.N r.r.b b F F r.<.H P F H b F <.P F N n.N L F r.b.r.N F 6 F <.s.K M.; 3 3 3 V.V & & U.U.V * & ; * 3 * P.",
"+.@.+.| o.>.+.o.-.-.-.= | +.o.o.6.% F ! +.O.O.o...i +.| o.| o.-.| [ } O.O...-...o.+.#.G j 0 [ | { 0 | 6.| = 0 k.k.| k.= | k.= | ",
"r r p ) h.$.X.( X.h ( _ X.p _ $.i . Y.T...p r ) r ^ h @.h.+.) p _ p h p h ( a a , a . V ) p *.*.=.n =.#.a , n n ! , n n *.*.n a ",
"+ % # + 8 8 + X # # % % $ $ % 1 < U b.> 7 X 5 o 5 o $ 8 % % % @ 5 5 o + + @   o . X 2 C T.7 o % @ + o + + @ % @ o . % + % $ + + ",
"    + @ % @ X y X % O O o % % $ 1 9 F @.) % o % 1 o .   X % # $ X @ + % $ % + + @ % x w.v.r + @ + o     X @ + + $ @ o o # O + % ",
"X X X + # $ O % % X o 8 + + o o $ 9 H +.z.o + o o X o % . @ % + X 5 . @ + @ X X   % x S.W X.O # % + . k . @ % 1 < 8 +   o + + + ",
". X k o + % # % @ X o X + @ o @ O l F h.p @   @ . + O % X o @ @ @ . X % $ $ o % @ $ x L W _ # $ $ + X X   % o $ O % %   @ X @   ",
"o @ @ X 5 $ # # o @ @ . @ . X @ % l L _ $.o 5 # < % $ X . . .   @ @ X + + # % @ @ % x : z p 8 X % % % @ X @ @ % $ # % % +   @   ",
"% %   @ % # # % $ % @ @ . X o % X 9 L _ r o   # # O + o @ @ @ X X . @ X @ % @ @ k % l K x X.# X o # $ @ . o $ # < O % % @ o @ @ ",
"# # X 5 $ O O % # + + # % # % % X U u h p % o $ # $ @ % % o + % . t X $ % @ @ . t 1 l S y ( o X @ + # $ k X # # - $ % $ o $ @ % ",
"$ o X X # # O o % @ # $ X t 5 5 c 9 L ^ ( $ - $ 8 @ o % $ % X X X o . X X . % o . X U 6 M p 8 @ . @ % +   X % % %.% @ @ o 5 5 l ",
"X 5 y x x z y y m y . l x 3 3 U x 3 A.> z.5 5 l m y k 9.y y M M z w l M z x l M z z 3 L 3 h . x x y w c y z l z T :.2 M Q 3 M V ",
"K L F P L Z K 6 P e L N K b N J H b r.N Z L 6 L K 6 e L N L K e 6 L F I.3.H L L F F L i.7.K A.6 Z u J Z 6 F 6 6 <.L N 6 F N 6 H ",
"l l l l y V G D.l y x M y U l k z M 0.x y y y M M l . x x y G I M x M Y z M F.z U 9 z l l l F.y l 5.~ z.j ! ! x J , j ! , j j v.",
"6.[  .l.k.m B l.R.} |  .[ o.6. .= | -.6.l.= [ | } 6.0 0 0 { 8.e...4 0 [ ]  .-.....} ....$.-.O.$.@.O.$.X.) $._ y e X...@._ X.$._ ",
"&.1 $ O 1 & 3 } - # O O , < # < < < , O &.- &.# $ < < , , o V b $.h.< < &.- % $ < < O % o % 8 8 % % + . X @ y * e _ j   % % - # ",
"+ @ + % 5 v : i - @ $ % - O o X $ $ @ + $ o X t 5 @ 8 O + 5 D b $._ % @ $ $ + o $ o @ O 8 o o   $ 8 % % % $ y V Z _ n @ @ @ + + ",
"< X % $ o G Z @.O @ o @ X + @ + o X @ . @ % # o @ + @ % % X * F X.z.% + @ % % % $ X $ O O % . t $ $ $ X 8 % t ; e @.7 @ @     % ",
"$   # $ X * K i - X . $ X o X o @ @ % $ + % # o @ % % $ % t G H $.^ % $ @ % o X % @ 8 8 # o t o % + o + O % y ; N ) 7 % + @ @ X "
};
