/* XPM */
static char *YnJpcXVlMQ__[] = {
/* columns rows colors chars-per-pixel */
"64 64 123 2 ",
"   c #EAEAE8",
".  c #EBEBE9",
"X  c #EAEAE7",
"o  c #EAEBE7",
"O  c #ECECE8",
"+  c #ECEDE9",
"@  c #EBECE8",
"#  c #EBECE7",
"$  c #EAEBE6",
"%  c #EBECE6",
"&  c #E6E7E3",
"*  c #E2E3DF",
"=  c #E5E5E1",
"-  c #F7F6F3",
";  c #EDEEE9",
":  c #EBEBE8",
">  c #ECEDE7",
",  c #E9EAE6",
"<  c #E3E3E0",
"1  c #F5F5F2",
"2  c #EEEEEB",
"3  c #EAEBE5",
"4  c #E9EAE5",
"5  c #E7E8E3",
"6  c #E4E5E1",
"7  c #F4F4F1",
"8  c #EDEDE9",
"9  c #EDEDE8",
"0  c #EBEBE7",
"q  c #E8E9E4",
"w  c #EAEBE8",
"e  c #E8E8E5",
"r  c #E4E4E1",
"t  c #F4F5F2",
"y  c #ECEDEA",
"u  c #ECEDE8",
"i  c #E1E2DE",
"p  c #E4E4E2",
"a  c #E3E3E1",
"s  c #EDEDEA",
"d  c #E8E9E5",
"f  c #E0E0DD",
"g  c #E5E5E2",
"h  c #E9EAE7",
"j  c #EAEAE6",
"k  c #E9E9E7",
"l  c #E8E8E6",
"z  c #E7E8E5",
"x  c #E2E2DF",
"c  c #ECECE9",
"v  c #E7E8E4",
"b  c #E9E9E6",
"n  c #F3F4F1",
"m  c #E5E6E2",
"M  c #E6E7E2",
"N  c #E5E6E1",
"B  c #E6E6E2",
"V  c #E3E4E0",
"C  c #E3E3DF",
"Z  c #E4E4E0",
"A  c #E0E1DE",
"S  c #E7E7E4",
"D  c #E2E3E0",
"F  c #DFDFDC",
"G  c #DEDEDB",
"H  c #DEDFDB",
"J  c #DFE0DC",
"K  c #E5E5E3",
"L  c #E5E6E3",
"P  c #E6E6E4",
"I  c #E6E6E3",
"U  c #F1F2EF",
"Y  c #F2F2EF",
"T  c #F3F3F0",
"R  c #F4F3F0",
"E  c #F3F2F0",
"W  c #F0F1EE",
"Q  c #F1F1EE",
"!  c #F2F3F0",
"~  c #F0F0ED",
"^  c #EEEFEC",
"/  c #F5F4F1",
"(  c #EFEFEB",
")  c #EEEFEA",
"_  c #EFEFEC",
"`  c #EEEEEC",
"'  c #E0E1DD",
"]  c #EDEDEB",
"[  c #EFEFED",
"{  c #E8E9E6",
"}  c #ECECEA",
"|  c #EEEFEB",
" . c #E6E7E4",
".. c #ECECE7",
"X. c #E7E7E3",
"o. c #EFF0ED",
"O. c #E1E1DE",
"+. c #E7E7E5",
"@. c #EBECE9",
"#. c #E2E2DE",
"$. c #F1F2EE",
"%. c #F6F6F3",
"&. c #F2F3EF",
"*. c #F2F2EE",
"=. c #F1F1ED",
"-. c #F2F1EE",
";. c #F0F0EE",
":. c #F1F1EF",
">. c #EEEEEA",
",. c #E1E1DF",
"<. c #DFE0DD",
"1. c #F3F2EF",
"2. c #E4E5E2",
"3. c #F1F0EE",
"4. c #F2F1EF",
"5. c #EFF0EC",
"6. c #EFF0EB",
"7. c #EDEEEA",
"8. c #F2F2F0",
"9. c #F5F5F1",
"0. c #F5F4F2",
"q. c #F7F7F4",
"w. c #F0F0EC",
/* pixels */
"  . X o X X X O o + O @ # $ $ # % & * = - ; o O O o X @ : : + + + O O + + + + + O > , * < 1 2   > % > $ $ $ 3 4 $ # > $ > > # $ ",
"# > % $ $ 4 $ $ $ > # $ # % $ # > 5 * 6 7 8 $ $ $ $ $ 9 # 3 4 # > o # 0 > 0 $ $ $ $ q * < 1 2 o > $ $ > > $ $ % $ $ $ > $ $ # > ",
"$ % % 3 $ $ $ 4 $ % $ $ > # o + w e * r t y $ $ $ $ $ u # $ $ % % $ $ $ $ $ $ $ $ $ q i p 1 2 o % 3 % > > # > > # % $ > # # > % ",
"$ $ $ # % % u # # # $ # O     .   e * a t s # $ % $ $ % $ $ $ # # % $ $ $ > % $ o : d f g 1 2 h : @ > $ $ > > # # > > 0 o 0 o j ",
"$ # # > $ % $ > 4 4 $ $ o k l l l z x p 1 c 4 $ 4 4 v d 4 4 j $ 4 d q 4 % $ 4 4 b k l x r n 2 l l e 4 $ $ $ 4 q @ 4 4   k     l ",
"& & & m 6 M m N 6 6 6 B m 6 V < V m x *   g V V V V V m V 6 6 m 6 C Z 6 N 6 6 V 6 r r i A h S 6 V * V V V V V 6 6 V V * D D D x ",
"f f f f F G H G f f F G F H G G H F F G F F G G G G G G G F f G F G F f H G G G F F J F G H G G f F G G G i K L G V P I P P P I ",
"U Y T R U : i s T U U U U U U R T E T T U T U U U W Q Y T T s x s T T R U U U T R R T U R T T Y ! T ~ Q Y ! 1 Y i ^ 1 n / n n n ",
"( ) ) _ ` z ' _ Y ` _ 2 _ _ ] ] ] _ ` 2 ` _ ` _ [ [ [ ~ ~ [ { ' _ 7 _ ~ [ 2 [ ~ [ _ [ [ ~ _ _ ` } } c . . c c   F 2 T } } } } } ",
"$ # # X k 6 J | Q .   k     k     .             . . .   . .  .' ^ !   . .   . :   . . . . . . . k k         k e f s Q           ",
"$ $ $ # ..6 J 2 ! ..$ j # o o o o ....o o o o o , , o o $ 0 X.f ^ ! , # 0 o ..# o o o o , # ......# $ o o     z i 2 Q ..........",
"$ $ $ 4 4 6 J o.Q > # % % $ % # % > # $ $ # # % % % u # % $ M O.^ ! # > # % > > $ $ % % $ 4 $ $ $ $ $ # # $ : b i s Y > $ $ $ $ ",
"$ $ $ % # m f o.! s # $ $ $ $ % $ $ 4 4 $ # % # % $ > > % # & O._ T $ % % $ $ 4 4 j o $ o $ # ..# , 4 $ $ 3 4 d ' +.n 8 > $ $ $ ",
"> $ 4 $ $ m i o.Y . # $ % > > % $ # > # # # % $ $ $ $ % 4 $ 5 O._ / $ % % $ 4 4 , w w X   w : @.: o # $ 4 $ : & i z T > > $ $ $ ",
"> > $ $ $ 6 O.W Y   # % $ $ $ $ $ % # % $ $ $ $ $ # # > # > d #.^ T # > $ 4 4 4 4 # > # % > > # > > > # $ $ w m ' v Y # $ $ $ $ ",
"$ $ $ $ $ 6 J _ !   # $ $ $ $ > > % # u ; 8 > > > $ $ > # $ q i ^ ! j # $ $ $ $ $ % > $ > # $ 4 $ # % $ $ $   z x S Y $ $ $ $ $ ",
"$ $ $ $ # M ' 2 Y   # $ $ $ $ % % $ % ..u > > # $ 4 4 ; # $ q * ^ Y k # % $ 4 $ $ $ $ $ > 4 4 4 4 4 4 4 $ $ . z x v ! $ $ $ $ $ ",
"q q 4 4 $ q O._ _ k e v & v v v v q v M q q q v v v v q v v & V | ~ l l v v v v q v q v q q m & v v 5 5 v v b l * v Y v v v v M ",
"V Z 6 V x i H a x J f ' f ' ' ' ' f ' G ' ' ' ' ' ' O.< O.O.O.f ' ' ' ' ' ' F F O.J f ' O.O.F f f ' ' ' ' ' J i F J f ' ' J J F ",
"x 6 d , o o d v z z z v & S S S S v < f d e z z & z d d e d z z & v z v d z z z d d , < G g d v z v S S S S e & , ~ T Y Q Y T Y ",
"~ Q Y Q 7 Y T Y $.n T T 7 7 7 7 7 T   I %.T n T Y T n T ! 7 ! T ! Y ! T n ! T Y &.T T X f Q T U n ! *.*.=.Q -.~ _ ;.Q ;.~ ;.Q Q ",
": . . s } : u # u 2 :   c . . . . c d P 7 _ c . . . . . . c . } . .   . c . . X O } . m F Q ~ . } X % $ $ % :     k   }         ",
"$ $ $ $ $ $ $ % > > $ $ $ % $ $ $ 3 & F Q | # % $ $ # # $ % > $ $ # > > % 4 % > $ # $ 6 ' n :.u # $ $ $ $ $ % $ $ $ # > % $ % $ ",
"$ $ $ 4 $ % > > > $ $ $ # > % $ $ > q f Q >.$ $ % > > > # $ $ 4 4 $ $ % % 4 $ > % # $ 6 f Y Q O # $ $ $ $ $ > > > > % $ $ % > > ",
"% $ $ # > > # > $ $ $ % # # > % $ > & F Q y $ $ $ $ % # # # # # # # # # $ $ $ % % # % m f Q ;.o % > $ $ $ $ > > # > > $ $ $ $ % ",
"$ $ $ % > > # > $ # % $ $ $ > > $ > m G Q s > % $ $ $ $ # > > > > > > # $ > $ % # # # v ' T Q j $ % $ $ $ $ % > # # # $ $ $ $ $ ",
"4 4 $ $ # > > % $ % % $ 4 $ % > $ # m f Y ( # $ $ $ # # # # # # # # $ $ $ # $ # u # % m f T Q , % % $ $ # # % # > % 4 $ $ $ $ $ ",
"$ % # # # # % $ $ # # # # # $ % # > M f Y | $ 4 4 $ > > % $ # % $ $ $ 4 $ $ 4 # ..% % V F T Q o > # 4 $ % # % $ $ $ $ % # # # # ",
"4 $ % % $ 4 4 $ $ $ $ $ # % 4 4 % 8 & F T | $ $ $ > > > # $ % > $ $ $ $ # > $ $ # # % 6 G Y ~ , # > # $ $ > $ $ $ > > # $ $ $ $ ",
"4 4 4 # # $ # > $ $ $ $ $ $ > # 4 4 6 F Y =.d 4 4 4 4 $ 3 4 4 $ 4 4 $ $ 3 % 4 q q 3 q 6 F T ~ j 4 4 4 4 d d 4 4 4 d d $ 4 4 4 4 ",
"m m m m m 5 5 m m m m m m m 6 6 * * * F S P * V V * i * * V V * * * * * * m V * x 6 V V J S K * * V V V * * 6 V V V V V * * V m ",
"* f O.F ' * ' O.r D * * * x ,.x < < < x < < x r V x x < < V x <.f x x x x x x < < < * * x ,.x x < r < * x x x < J J * x * v k , ",
"c X b e e , O.< Y ;.Q T T Y Q U R Y 1.Y T Y T Y U 1.Y U U U W 2.S Y Y Y Y :.W Y R T T T Y W W W U Y T T Y Y Q 3.r r 4.~ ~ n t t ",
"5.( 6.6.| | Z g n _ 2 [ [ _ ` 2 ] ] 2 [ [ _ ` ` ` ` _ [ [ [ ] r z t 2 _ ` 2 7.>.2 _ [ [ 2 _ ` ` ] 2 ( ( _ [ ` X i v 7 _ . c } . ",
"$ # > > 8 q x 6 1 s     0 > $ $ $ $ $ 0 ..0 k @.c   k X X k e x b %.} . : $ % % 0 w     k @.: w c : > > > o . k x S 7 7.% % $ 3 ",
"$ > # > $ v x m 7 s .   , $ $ $ $ $ $ % % $ $ % % % % # $ $ q * v T s @.$ 3 $ % u # $ % $ $ $ $ $ % $ $ $ $   e x v 7 9 % % % $ ",
"$ $ > > $ v x N n s . . o $ $ $ $ $ $ > % $ $ $ % > % % $ 4 v V v Y s 0 $ $ $ $ % > $ 4 # $ $ $ # > % $ > > o z x z T + $ # $ $ ",
"$ $ $ % $ v * m n s .   o $ $ $ $ % $ $ $ % $ $ $ $ 4 $ 4 $ q x b n # $ > > % 4 4 > > $ # $ $ 4 4 % $ $ > > # 5 x S T 8 $ > % $ ",
"$ # # > # v O.6 n 7.o   o $ $ $ $ # $ 4 4 # $ $ $ 4 4 $ $ # q i l n % $ $ # # $ $ # > $ # $ $ 4 4 $ $ # > > > v x m Y ; $ > $ % ",
"> # > > $ q i 6 n >.% # o $ $ $ $ > > % 4 % > $ $ $ % $ $ > q i z t 9 $ $ $ % > % # > $ $ $ $ $ % > # > # $ > v x I ! ; 4 # $ # ",
"# # % % # 5 i B 7 u $ # X : @ X @ c @ @ 0 o > # $ > > # $ > q < v 7 c 0 @ o o @ 0 # % $ $ % # # $ u % # # % $ v i I n c , @ @ 0 ",
"> > > $ > & ' 6 7 ..4 $ 3 % % 3 4 % % $ $ d $ % 4 $ > $ 4 4 v < e T .           o $ $ # u 4 4 % 4 % 4 4 $ $ $ q F I ! + q $ 4 $ ",
"q 4 q 4 v v O.6 T c 5 q $ 4 4 4 5 & q & & 5 & & & & & & M M m O.I _ z m L I L & & M M M & & m 5 q & & & & & 5 M ' g _ d m & & 5 ",
"6 6 V a * V ' * b 6 x V r * < < O.J O.O.J O.i i i i i O.J f ' f f < J ' ' ' ' O.O.' J f ' i ' O.x ' i i ' J J ' f f r i J ' f O.",
"* Z C x < < r < x r X s @ w w @ @ : I F b : : X : + @ @.@.@.@.@ w @ o w @.: w o : s y & F : c X + w X @ @ X X @.>.0 X o @.8 X X ",
"W 1.Y Y Q Q Y W ~ W T 7 ! Y Y T n T : F Y T Y Q Y n n T ! ! ! T T T Y Y Y Q n T Q ! T w J Y 7 Y Y Y Y Y n T Q T 7 T Y Q Y Y Q Q ",
"_ _ ~ s c c c c . . c c . . . . c . e G Q ~ c . . ] 2 c . . . . } } . . . . } } . c } e G ~ Q } . c # # ; u : . c c . k X k   . ",
"k     : 0 , o @ @ @ @ @ c .       k 2.G Q ~ @ j X X 0 O O @ @                     k l 2.F Y ;.k k b # # > # % $ , 0 . @ @ c } c ",
"  . . j > # $ $ $ % % # @     k     2.f Q Y 9 > > % $ $ # # % : .   k k     l l . .   2.f T :..     $ % > $ # > # % % $ $ > > > ",
"  :   4 % # % # $ % % # #   X h   , V ' Q =.0 # # o 0 # # o , X           . k   : : X 6 G ! Q w   : o $ $ j 0 # # 0 , > > > > # ",
"> $ 4 $ $ $ $ $ % > > > # % $ $ > $ 6 F T ~ o o o o o o ....o # ....# o ......u # # $ 6 G Y =.$ > ..    l k k l l   k % % $ $ % ",
"> > % $ $ 4 $ $ 4 $ $ $ $ # > > # 4 * F Q ~ $ $ $ $ % # > > > > > # > > > % $ $ $ # $ 6 J Q Q u > # o @ @ o b X @ X b $ $ $ # # ",
"# > > % $ $ % > % > > > # > > % 4 4 6 F T ~ $ $ $ $ % > % > % $ $ $ $ $ $ $ $ $ $ > $ 6 F ! U u $ 4 $ > > $ > # 4 $ > > % > > # ",
"$ # $ # # # > u > # # % # > $ $ > , 6 F Y ~ $ $ $ $ $ $ $ $ $ $ $ $ $ $ $ $ $ $ $ > $ 6 G n Q   $ $ $ > $ $ % $ % # > > % % > > ",
"$ $ $ % $ $ % > % # # $ 4 3 4 $ # h V F Y ~ $ $ $ 4 d d 3 4 $ $ $ 4 4 4 $ $ 4 4 $ % 4 6 F n W e $ 4 d 4 4 4 q $ $ $ d % # % $ 4 ",
"6 6 6 m N m M 6 6 6 6 5 5 M 6 * V g V f { I x < i i O.' * * 6 * x x < * V V i * x * * i F g I V g O.' i i i V x * * ' * * * V V ",
"J F J F ' ' O.i ' f f ' O.f ' < r < r x D x O.O.O.O.,.O.x x < f F x O.,.< < x * x * C D O.x < < * O.O.O.O.,.D x H f x * x x * x ",
"s s s s o.: x r s 2 s s s s 2 1 T T 7 T ! 7 8.T ! 8.! Q 8.U Y r +.T T 7 T T ! T 7 9.T 8.8.n Y n 7 7 ! T ! T 0.Y < z / T Y Q Y :.",
"! Y ! Y Y Q < g 1 Y [ [ ( ~ ~ 2 [ ~ ~ _ _ [ ~ ~ ~ [ ~ ~ Y W 2 < b q.Y ~ W [ W W ~ w.5.~ Q ~ _ ~ ~ _ ;.~ ~ W Q ] * l t W [ ~ ~ ` ",
"$ > % > $ & ' K n s k k @ % > > $ $ 4 4 4 % # : : w 4 # # > v i z t . : > % $ $ # > > > 8 # $ > # o   o o X > m ' & T ) 4 > # # ",
"$ > % > $ 5 O.K n s k   : $ % % $ # > $ $ $ $ $ $ $ 3 $ $ # q i z n . X % $ % > # > # $ % $ $ > > o   $ $ $ # d r & 7 ) 4 # $ $ ",
"$ > % > % v i K n s     o $ $ $ $ > % $ $ $ > > > > > 8 $ # q i l n . h > > % % $ % $ 4 $ $ $ > > ..  $ $ $ $ % K & t ) $ # $ $ ",
"$ > % $ # b x K 7 s . . o $ # # $ % $ 4 $ $ ..> % $ > 8 % # v i { t } X > > > $ 4 $ $ $ $ % $ > > o   $ $ $ > d < S n ) % > $ % ",
"% > $ $ % e i 6 1 s   . o $ > # $ $ $ % $ $ > > $ 4 3 $ $ # v i { t s w % > # % $ # > % $ % $ # % o   $ $ $ # q x v ! u $ # % # "
};
