/* XPM */
static char *YnJpcXVlMg__[] = {
/* columns rows colors chars-per-pixel */
"64 64 160 2 ",
"   c #959593",
".  c #979895",
"X  c #999A96",
"o  c #9D9D9A",
"O  c #A09F9D",
"+  c #9FA09C",
"@  c #A1A29E",
"#  c #A4A5A2",
"$  c #A7A8A5",
"%  c #A9A9A6",
"&  c #ADADAA",
"*  c #AFB0AD",
"=  c #B1B2AE",
"-  c #B5B6B3",
";  c #B6B6B3",
":  c #B6B7B3",
">  c #B4B5B2",
",  c #B5B5B4",
"<  c #B6B6B4",
"1  c #B6B7B4",
"2  c #B7B7B4",
"3  c #B6B6B5",
"4  c #B7B7B5",
"5  c #B7B7B6",
"6  c #B4B5B2",
"7  c #B7B8B4",
"8  c #B7B8B5",
"9  c #B7B8B6",
"0  c #B7B8B4",
"q  c #B8B9B4",
"w  c #B8B8B5",
"e  c #B8B9B5",
"r  c #B9B9B5",
"t  c #B9BAB5",
"y  c #B8B8B6",
"u  c #B8B9B6",
"i  c #B9B9B6",
"p  c #B8B8B7",
"a  c #B9B9B7",
"s  c #B9BAB6",
"d  c #B9BAB7",
"f  c #BABAB6",
"g  c #BABBB6",
"h  c #BABAB7",
"j  c #BABBB7",
"k  c #BBBBB7",
"l  c #BBBCB7",
"z  c #B9BAB6",
"x  c #B9B9B8",
"c  c #BABAB8",
"v  c #BABBB8",
"b  c #BBBBB8",
"n  c #BABAB9",
"m  c #BABBB9",
"M  c #BBBBB9",
"N  c #BBBBBA",
"B  c #BBBCB8",
"V  c #BBBCB9",
"C  c #BBBCBA",
"Z  c #BCBCB8",
"A  c #BCBDB8",
"S  c #BCBCB9",
"D  c #BCBDB9",
"F  c #BDBDB9",
"G  c #BDBEB9",
"H  c #BCBCBA",
"J  c #BCBDBA",
"K  c #BDBDBA",
"L  c #BCBCBB",
"P  c #BCBDBB",
"I  c #BDBDBB",
"U  c #BDBEBA",
"Y  c #BDBEBB",
"T  c #BEBEBA",
"R  c #BEBFBA",
"E  c #BEBEBB",
"W  c #BEBFBB",
"Q  c #BFBFBB",
"!  c #BDBDBC",
"~  c #BEBEBC",
"^  c #BEBFBC",
"/  c #BFBFBC",
"(  c #BEBEBD",
")  c #BEBFBD",
"_  c #BFBFBD",
"`  c #BFBFBE",
"'  c #BCBDB9",
"]  c #C0BFBE",
"[  c #BFC0BB",
"{  c #BFC0BC",
"}  c #BFC0BD",
"|  c #BFC0BE",
" . c #BFC0BC",
".. c #C0C1BC",
"X. c #C0C0BD",
"o. c #C0C1BD",
"O. c #C1C2BD",
"+. c #C0C0BE",
"@. c #C0C1BE",
"#. c #C1C1BE",
"$. c #C0C0BF",
"%. c #C0C1BF",
"&. c #C1C1BF",
"*. c #C1C2BE",
"=. c #C1C2BF",
"-. c #C2C2BE",
";. c #C2C3BE",
":. c #C2C2BF",
">. c #C2C3BF",
",. c #C1C1BE",
"<. c #C1C1C0",
"1. c #C2C2C0",
"2. c #C3C2C0",
"3. c #C2C3C0",
"4. c #C3C3C0",
"5. c #C2C2C1",
"6. c #C2C3C1",
"7. c #C3C3C1",
"8. c #C3C3C2",
"9. c #C4C3C1",
"0. c #C3C4C1",
"q. c #C3C4C2",
"w. c #C4C5C1",
"e. c #C4C4C2",
"r. c #C4C5C2",
"t. c #C5C5C2",
"y. c #C4C4C3",
"u. c #C5C5C3",
"i. c #C5C6C2",
"p. c #C5C6C3",
"a. c #C6C6C3",
"s. c #C6C7C3",
"d. c gray77",
"f. c #C5C5C4",
"g. c #C6C5C4",
"h. c #C6C6C4",
"j. c #C6C7C4",
"k. c #C7C7C4",
"l. c #C6C6C5",
"z. c #C6C7C5",
"x. c #C7C7C5",
"c. c #C7C7C6",
"v. c #C4C4C2",
"b. c #C7C8C4",
"n. c #C7C8C5",
"m. c #C7C8C4",
"M. c #C8C9C5",
"N. c #C8C8C6",
"B. c #C8C8C7",
"V. c #C9C9C7",
"C. c #CAC9C7",
"Z. c #C9C9C6",
"A. c #C9CAC8",
"S. c #CACAC9",
"D. c #CACBC9",
"F. c #CBCBCA",
"G. c #CCCCCA",
"H. c #CDCDCA",
"J. c #CDCDCB",
"K. c #CBCBC9",
/* pixels */
"& 7.7.u # $ W 7.w.n.w.| u & % % $ # @ @ = % % & & & = & = 5 k u A W S W W W W W W W u ; ; 8.W S S W W u A k A u A W W A A W A u ",
"* 7.w.W % X & W 0.n.Z.w.0.W : ; ; & % % ; = & = = = ; u u u u W W A W S A k u u S k u ; ; 8.W m W u k W A k u W A u u A A A A W ",
"& *.w.*.* X @ = W *.w.w.n.w.*.| W 5 = > ] u 5 u u u A W k u k A A u W A A k W u S m 5 > ; 8.] W A u A A A W A A W A A W k W W A ",
"& *.w.w.W @ o & : W *.w.f.f.w.>.] W ; 5 w.W W u A W u A W k S k A A u A u W A A S S S > 5 w.W u S W W A A A W W A A W k m k W u ",
"& [ w.n.*.& . @ & ; W ! *.7.7.w.8.*.m m f.! S S u A u k k k k W S W S W ..W W m m m m > 5 7.S m u k u S S k u k W u u S m m m m ",
"% u ! 7.*.u X   + & ; u u W W ! ] *.! W 8.W k k u u u k u u u u m k S S W W W W S 5 , > > m 5 ; ; ; ; > ; ; ; 5 ; ; 5 ; ; ; ; ; ",
"# > 5 ! ! u #     o % * > = > ; u m S S S S u u u u q 2 5 5 5 ; ; 5 u S u u S ! ! 5 > > = = = > > = = > = > 5 5 = ; 5 u u 5 5 5 ",
"> *.w.S.H.w.; % O o % 5 ! 7.*.*.8.8.f.k.f.k.Z.f.k.k.k.k.k.w.*.5 ] 8.f.f.w.w.Z.K.J.k.7.*.7.7.7.7.*.7.] *.>.8.8.*.; ! w.*.8.7.7.7.",
"= [ ! 7.Z.f.m B % o o $ 5 ! ! ! W *.! ] 7.$.] 7.7.7.7.7.7.*.S > W 7.W ] ] ] 7.k.S.k.d.] ] ! *.! S ! W m S S S u = ! *.W S S ! ! ",
"% u W W 7.0.! 0.p # . X # > p ! u W S m m m m m m S S S S S 5 = W ] m m u m ! 7.d.8.$.S S S S S m m m m m S u 5 = ! ] m S ! m S ",
"# ; B W *.7.| f.d.= o X o # = 5 l A [ A m m m W m m u m m S u > ! 7.m S u W W *.7.*.! W u W A W S S S S S m m 2 ; ! *.W S S S S ",
"@ = B m B W | D.f.W * @ X X # & > l l g m W W u S S W W A S 5 > ! *.S W A W W W W W A W S k k u S S S W S S W 5 = W *.W S S S S ",
"+ * l l W B ! D.S.0.W * # o X @ $ = > g A A A A A u W W k W 2 ; ] 7.A A W W W W B S u W u W k W S m m S W A u u = 5 *.W W A u W ",
"X & u B l 8 B S.H.w.| l = % @ X o @ & = ; l A A u W u A W k u = ! *.u u A A l W B m W m m m m W S S W u u u W ; = 5 *.W A k A u ",
". # ; l B 5 u f.H.f.w...W ; & @ + o + $ % & = q ; q A A ] k ; & u S 5 q u u A l m B W W W W A W A W W W u W W ; = ; *.W l l A u ",
". o * l l ; > 7.S.Z.n.0.[ W l = & @ + @ @ # $ $ & * = = = > = & > 5 > 5 u A A A B W A u A k u A A W W u W u m u ; 5 *.u u u W = ",
"X o % l W u = *.w.8.Z.f.w.*.W W ; = & $ $ # $ @ # # $ & & * * % > u 5 u k W k S A k W u W u u u A u A u W u W u ; 5 ] u u u u * ",
"o X $ : l u ; ! ! W 7.0.w.w.! W l u = = = & & & $ $ $ % % * * * 5 W 5 u u u u u u u u 5 k k W m A W W W S u u m ; u *.u u u q $ ",
"o   o & = ; = ; ; ; 5 m ! | | W u 5 ; = = = = & & & & & * * > > = > ; ; ; = > * ; = = > ; u u m m S m k u u ; 8 = > > > ; = = @ ",
"@   X % > W u u u u u m ! *.w.w.>.*.u ; A k u q u 5 m m u k 5 u u u u u k u u m 5 ; ; = > S ] ! ] *.*.*.*.*.*.! W *.] 7.*.>.>.2 ",
"= # @ @ > ! 7.*.*.7.*.7.0.w.n.D.K.K.7.W Z.w.w.8.*.*.7.7.7.7.7.*.7.*.7.7.*.7.7.*.W 5 = > > *.7.7.f.f.k.Z.Z.Z.Z.S.k.w.8.*.] ] *.5 ",
"5 & O X o > m S W W m m ! W | | 8.w.8.*.K.w.*.! W m S S m W m W S S m m W W S p = % # % > *.] S S W W W ] >.w.w.k.8.7.*.S S S p ",
"u ; % o . @ = u W B B l B W B [ ] ] ] W Z.Z.w.8.W W W A m A W l u W W W A u A u & @ o $ = 7.] W W u W u A W ] *.f.f.Z.w.] W W u ",
"A u = # X X # ; l B B l l W B l l W A 5 k.k.k.k.*...W W W u l l u W u k A k A W & o X # & *.] W S m u W A k A ..*.w.b.b.>.*.W W ",
"A l q = $ X X @ = g l [ B B [ l l W 8 = *.*.8.b.k.*...W B W B B W A u W u A u A = @ . o # u ! W A A l l u W A A W *.w.w.Z.w.*.W ",
"A A u u = @ o X @ = : g l l [ l B W u = *.] ..w.Z.w...u l W W A A W W A A W A A ; % + X X & 5 5 u W B l A u A A W W *.*.k.k.w.*.",
"W u A A l = $ X X @ % > : l l [ u A 5 > *.] W *.w.w.*.W W B W B A W u W A A A W A ; % o   # # % = q u A W A A W A A u W w.Z.w.w.",
"[ A A W W l = $ + X + $ * - : [ W W ; > *.W u ] w.*.*.A B B B l k A A u u W u u A l ; % o # @ o # & = : u W A l u A W A *.w.Z.f.",
"*.W W A A u : ; % @ + + + $ % * ; q ; & *.! u ] 7.>.[ W B l B [ B B l l W A A u W W l ; & = % O + @ @ % = A A A A W A W W *.w.Z.",
"w.W u u W A W A q = % @ + + + $ # % & $ 5 W ; S W W l l l u u l u l B l A A u k u l u ; = ] u & @ @ X o @ & ; u u u u u u A *.w.",
"*.W 5 5 ; u u : q : * * % # + + O O @ @ % * * ; ; ; ; > ; ; ; > ; ; ; ; ; : 2 ; = ; ; ; > 5 2 = * % @ .   X # = ; ; ; ; ; ; u *.",
"*.m ; > > ; > > : : - = = * % % # # @ # % * = > ; ; ; ; ; ; ; > > ; = ; ; ; ; ; ; ; ; ; ; > ; = ; = & @ X   X @ % = ; ; ; u m *.",
"w.*.S u u u ; ; 7.] ] 7.*.*.] W W S S k W ! *.*.*.8.*.*.*.*.*.; u *.7.7.8.7.7.w.k.8.f.8.8.*.] *.*.7.*.m * # o O O & ] ] ] 7.7.f.",
"k.>.*...! W ; ; 7.] ! $.! *.! ] ! ! W ! ! ! ! ! ! ! ] ! ] ! W ; B w.*.*.7.7.8.8.8.8.f.k.8.8.7.] ! ! ! W m > # X . # m ! S W m ! ",
"*.] W A W u ; ; 7.W S m W W A u S k k W W S m W W S m S m m u 2 ! k.! ! *.*.*.*.*.*.8.w.8.w.8.7.*.] W W A u = @   X & 5 A A m u ",
"W ..A W W u ; u 7.W S S m u A A u S k A W u u W k W u W u S u ; W w.*.! W A W ] *.*.*.>.8.>.w.w.w.*.] W W m 5 = X   O & q u A W ",
"W W A A A u ; : 7.W m S W u A u W k A W l l B B W A u q q u l q u *.] k k u A A A A A W ] *.*.w.w.b.w.>.*.W A ; # O o @ * A A A ",
"u A k A u u ; q 7.W ! m m A u W u W A u l l B B u u ; = ; u u ; S *.A u A W A u u u A u W u W ..*.w.b.b.w.*...u = $ @ X # = A k ",
"u W W A W u > ; 7.W m m W u A A u W A u l W l l q = & = ; u u ; m 7.A A A W W k A W W u W u u A W W >.w.Z.s.>.A 2 * % X o & q A ",
"W A A W m u ; 5 7.! S S m W u A A A W A l A A l = & = = u A u ; u 8.W A u u A W A A W A A u A u A W ] >.s.s.b...2 5 = @   @ = W ",
"A A A A W u ; q 8.W u W m S u k W W W W k W W ; % $ * 5 m W u ; u 8.W k N N N ! m W A W m W u W l W W W 7.w.f.w.W k W $ X o % S ",
"A W A W A u > ; 8.W k k k k A u u k A u u k u = @ O & 5 m u u ; k 7.S S N N N N m m u u ! m u W u A u m W *.w.w.W ] 8.* o   @ = ",
"u l u u u 8 > ; *.S u u W u u u u u u u 8 u 8 & o . # > 8 8 8 > 5 m ; = * & * & * = = & & = = , u u u u u u W *.] 7.8.5 #   X % ",
"; ; 2 ; ; ; > ; m ; ; ; ; ; 2 ; ; = ; ; = ; > % o   . # % & & & & > % # # # # # # @ @ # # O o # & & * = > > ; u ! *.*.m # .   O ",
"; ; ; > ; ; ; ; 5 5 m W W m ! S S S 5 * m W m 5 % O o O % & % & > > * & & % % % % % & # O # O O # % % ; u u S W 8.k.f.d.! % X # ",
"] 8.*.*.*.*.*.| ] ] *.7.7.] 7.$.7.7.S > *.7.*.W m > & & & * * > 5 m S p S 5 p 5 5 u 5 > $ > & $ $ @ # % = 5 S 7.f.k.J.K.f.; O # ",
"] ! ] W W W W W m S S W m S S ! ! S 5 = *.] S S p m 5 = = = = > m m S ! ! S S ! m m S u = W k > & # O o @ # & ; S ] d.f.d.m # o ",
"m S S S S u m m W ! S S ! S m ! m m 5 > *.] S S S m S ! N N m m m m m S ! ! ! n W S ! m , 8.8.S W 5 * % @ o o # & u ] f.k.7.& o ",
"S S ! m W l u u l A l W B m S m m S 5 > ! *.W A W W k A l B W W S m m m ! ! W ! ] ] $.S m k.k.*.*.$.! W ; # o @ @ & u *.f.s.A @ ",
"m S S u l W W W l A l W B m m m W u 5 > ] *.S m A u u W W l u m ! S S W ! ! ! ! *.7.$.W 5 k.k.8.7.8.7.*.*.S > # o o % W w.Z...* ",
"W u m S l l l l W W A W W A S m A u 5 = 7.] m W m W W u A A l l S ! A W *.*.[ [ ! *.W u 5 8.8.*.>.>.7.7.7.*.! W * @ O & W 0.*.q ",
"W W k S W u B l u l l l u k W W W u ; > *.] W u k u A W W l l l W W W W W W B B u W k ; > *.8.! ..| | *.w.8.7.w.*.; % $ = ..*.A ",
"A A W A A l A A l A A W W W A A u k ; = *.] u S A u A u u g q q u S S W B B B B u A u ; = $.7.S A u W ..[ [ *.>.>...W ; * A ..W ",
"u W u W l W A W W W A A A A A u W m ; > *.] W m u W u ; = = > g u k u u B B B B W W A 8 = 7.$.! A A u A u u W *.>.>.*...l q W A ",
"A W u A u l A W l A W l u l u W W u ; = 7.] S S W u ; = = = : A A u A u l B l u l A u 8 = ] S * = = = ; = = & = q u A W W A A u ",
"; ; : u u u u ; ; ; : u l q ; ; ; 5 ; > m 5 > > ; * & % * = = > ; ; ; ; ; ; > ; ; ; = = * * & $ # # # # # # @ @ @ # # = = = = 2 ",
"> > > > > > > ; > > > > > > > > 5 ; ; > 5 > > > * & $ % * > ; > = ; > > > > > ; > = * & & % % $ # # # # # # $ $ & % % & = * = ; ",
"S S S W ! m ; ; W W ! ! W W ! 7.7.7.7.*.*.7.*.W p > 5 u ] ! *.; u *.7.7.$.7.7.] ] W m 5 S S 5 m 5 p S S ] ] ] *.q A 7.*.] W W S ",
"$.7.*.*.*.*.; 5 7.*.! ` ] *.] ! ! *.*.! ! ! W 5 * * ; W *.*.W ; S f.*.7.*.] ! S W S W u W ] W ! ] ! ] 7.$.8.>.*.u ! f.*.S W m m ",
"u W A W m u = 5 7.W m m W u W W l W u l m W 5 & # & = W u W u > u 7.W S W W m u u A A A S S u W W W ! W W ] ..u ; B w.W = 2 5 m ",
"S W A A k u ; 5 7.W p ! m S A A l B W B A A = @ # * 5 S B W u ; m 7.W S A A A A W A A A A A A u W S S S W W A u 5 u *.q * u u 2 ",
"u W A W A u ; 5 7.! ! m m k W u l W l B A g = @ % , k W B B u ; m 7.S S W W A A A A u k u A u A S W S m W u u W 5 u ! ; > W W = ",
"A A A k W u ; 5 7.S S S W u A W l B l l A ; & @ & ; W W W l u 5 m f.W S W A W u u u u q u A k W W m m S A A A u ; ; u ; A *.A = ",
"A W u A A u ; 5 8.! S W u A W u l l l A l = @ @ & 2 k k B B l 8 ! f.] W A W A A u q q q q A u A u m m W W A A ; & = u u W *.A & "
};
