/* XPM */
static char *YnJpcXVlNCslMjgxJTI5[] = {
/* columns rows colors chars-per-pixel */
"64 64 201 2 ",
"   c gray33",
".  c DimGray",
"X  c #6A6A6A",
"o  c #5A5A5A",
"O  c #505050",
"+  c #5D5C5C",
"@  c #6E6D6D",
"#  c gray46",
"$  c #747373",
"%  c gray44",
"&  c #646464",
"*  c #595858",
"=  c #555555",
"-  c #525151",
";  c #515151",
":  c #464646",
">  c gray27",
",  c #646463",
"<  c #565656",
"1  c #515050",
"2  c #535353",
"3  c gray32",
"4  c #565555",
"5  c #555454",
"6  c #5A5959",
"7  c gray35",
"8  c #5B5A5A",
"9  c gray37",
"0  c gray36",
"q  c #5C5B5B",
"w  c #4A4949",
"e  c #666665",
"r  c gray38",
"t  c #5D5D5D",
"y  c #5B5B5B",
"u  c #686868",
"i  c gray43",
"p  c #616060",
"a  c gray31",
"s  c #575656",
"d  c gray42",
"f  c gray45",
"g  c #767676",
"h  c #5F5F5F",
"j  c gray34",
"k  c gray30",
"l  c #4C4C4C",
"z  c #585858",
"x  c #4E4E4E",
"c  c #484848",
"v  c #656565",
"b  c #545353",
"n  c #676666",
"m  c #717070",
"M  c #696868",
"N  c #606060",
"B  c #6B6A6A",
"V  c #767575",
"C  c #6D6D6D",
"Z  c gray40",
"A  c #6F6F6E",
"S  c #717171",
"D  c #727171",
"F  c #605F5F",
"G  c #666565",
"H  c #747474",
"J  c #727272",
"K  c #656464",
"L  c #727271",
"P  c gray29",
"I  c #626262",
"U  c #6C6C6C",
"Y  c #5F5E5E",
"T  c gray39",
"R  c #585757",
"E  c #636262",
"W  c #626161",
"Q  c #686867",
"!  c #504F4F",
"~  c #5E5D5D",
"^  c #585957",
"/  c #706F6F",
"(  c #6A6969",
")  c #676767",
"_  c #6F6F6F",
"`  c #6D6C6C",
"'  c #4A4A49",
"]  c #494848",
"[  c gray28",
"{  c #585857",
"}  c #454444",
"|  c #4F4E4E",
" . c #5E5E5D",
".. c gray26",
"X. c #3E3E3E",
"o. c #414141",
"O. c #484747",
"+. c #494949",
"@. c #454544",
"#. c #4B4B4B",
"$. c #60605F",
"%. c #434343",
"&. c #525251",
"*. c #636362",
"=. c #656564",
"-. c #676766",
";. c gray47",
":. c #7D7D7C",
">. c #7A7A79",
",. c #696968",
"<. c #70706F",
"1. c #767675",
"2. c #80807F",
"3. c #7B7B7A",
"4. c #5F5F5E",
"5. c #5C5C5B",
"6. c #6E6E6D",
"7. c #717170",
"8. c #6C6C6B",
"9. c #6A6A69",
"0. c gray50",
"q. c #7C7C7C",
"w. c #6B6B6A",
"e. c #6D6D6C",
"r. c #858584",
"t. c #4C4B4B",
"y. c #5A5A59",
"u. c #868685",
"i. c #757474",
"p. c #4B4A4A",
"a. c #5B5B5A",
"s. c gray51",
"d. c #797979",
"f. c #4E4D4D",
"g. c #7F7F7E",
"h. c #787777",
"j. c #535252",
"k. c #737272",
"l. c #777777",
"z. c #444343",
"x. c #4D4C4C",
"c. c #474646",
"v. c #777676",
"b. c #434342",
"n. c #646363",
"m. c #575756",
"M. c #464545",
"N. c #3F3F3F",
"B. c #3D3C3C",
"V. c #3A3939",
"C. c #3C3B3B",
"Z. c #40413F",
"A. c #444444",
"S. c #5E5F5E",
"D. c #414140",
"F. c #4F4F4E",
"G. c #4D4D4C",
"H. c #7A7979",
"J. c gray49",
"K. c gray48",
"L. c #777776",
"P. c #818181",
"I. c #838383",
"U. c #7E7E7E",
"Y. c #808080",
"T. c #7B7B7B",
"R. c #616160",
"E. c #626261",
"W. c #737372",
"Q. c #464645",
"!. c #787877",
"~. c #424241",
"^. c #595958",
"/. c #3D3D3B",
"(. c #555554",
"). c #414241",
"_. c #494948",
"`. c #797878",
"'. c gray23",
"]. c #3F3F3D",
"[. c #434242",
"{. c gray24",
"}. c #565655",
"|. c #747473",
" X c #545453",
".X c #797978",
"XX c #7C7C7B",
"oX c #757574",
"OX c #6F6E6E",
"+X c #535352",
"@X c #424141",
"#X c #3F3E3E",
"$X c gray25",
"%X c #4C4C4B",
"&X c #4E4E4D",
"*X c #888887",
"=X c #686767",
"-X c #5D5D5C",
";X c #6C6B6B",
":X c #50504F",
">X c #40403F",
/* pixels */
"  . X o O   + @ # $ % & * = - ; ; : > , < 1 2 2 3 2 4 5 = * 6 o 7 o 8 9 0 q 8 o 0 8 O w e r t 0 0 y o o o o t t t 0 8 8 9 0 y 0 ",
"2 u i p 3 a s r d f g f X h 7 o j k l X o 2   = = 7 y j z 6 8 8 8 o y 9 t 0 8 0 0 y x c v r 9 9 0 8 8 o o 8 0 0 t + 8 8 0 8 o 7 ",
"b n m M 4 l O j N B m V f C Z N 0 3 O A h z z q 0 0 0 o o o o 8 y 8 8 0 9 h 8 8 8 y x w Z h y + t q 0 y o 8 0 t 9 0 t q 8 8 o o ",
"= & S D 9 O a   o F G @ f H J i K < 2 L r o y 9 9 9 y o o 8 y 8 o 7 o 8 y t o o o q ; P Z r 0 o y q 0 y o y t h N t 9 0 8 q 8 y ",
"= I C # U < l O < y Y & X % f # i T R f u Y Y 9 9 0 y 0 0 8 t 9 9 9 I E W W W N t q ; P Q I t o 8 q t y o 0 9 h 9 t 0 0 + t y q ",
"= h . # # 9 a k ! * 0 ~ 9 I . i % . ^ g / ( . Z T I r & & r N F T ) ( d M . _ ` Z 9 1 ' ) & 0 6 o 0 t 8 7 q 0 t t q y t t 0 6 7 ",
"O < h C S v a ] [ k 3 = = ; < 9 h Y o # % d u G v v T I N 9 o 0 9 r T & T v U i . t k : { < O x ; 3 3 O x O 3 ; ; ; ;   ; ; ! l ",
"} P |  .. n k ..X.X.o.O.+.: P x +.k O 0 0 0 0 y o 0 0 z s <   a O   2 2 3 2 y v Z 0 | @.c c ] c P +.+.c [ c P w [ [ c P [ P c : ",
"#.3 < $.` ) 0 O c %.%.c k x 2 4 &.3   j < y z j j o 0 o 7 o +.P z *.=.Z =.-.U ;.:.>.% ) -.,.) u u u u u v G I l y Q ) Z G ) =.=.",
"v <._ 1.2.. i 3.C 4.7 5.*.u C L 6.6.6.i _ 7.i i 8.<.<.6.6.. +.b i U 9.X . . d H 0.q.J X Q d w.. X X d X X . r P 6 i 8.X Q X . . ",
"2 7 9 N ) & % q.& j 1 a ; 3 7 t h Y Y 9 N 9 9 0 y N h 0 y 3 : ; i I 0 q 0 + 9 Z C . W 0 8 0 q q t 0 + q o o   +.7 e.~ o q t h t ",
"| < q o 0 0 f r.d 9 = O a t.| 4 o y o t y 0 q o o + t t 0 5 c ; e.I 9 0 0 Y h & Z r h t y 0 8 q t 0 9 ~ ~ y 3 [ y.e.9 0 q o 0 0 ",
"a 5 9 ~ R 2 d u.i.. 7 b a t.p.x ; < 7 y 8 t t o y q 8 q y < +.b U I t 8 t F N Z W 0 h 9 9 y z o t t ~ q 0 0   +.a.e.9 8 8 o o 0 ",
"p.2 t y < #.I s.d.D Z 0 4 - f.#.#.x   7 7 y 9 8 0 q t 9 y = : 2 d 9 y o 0 9 Y N h 0 9 t 0 y 7 9 y q q t ~ 8 5 c { d 9 8 8 q o 8 ",
"#.; y y < c 7 g.q.h.S T q z   a k #.k j.=   z * R * 7 q y   } x . h y o 0 t 0 9 + ~ 0 0 9 y 7 9 y t h 0 t 8 b P 5.U Y 0 0 8 8 o ",
"P k z 0 < c < # k.l.h.C v h y < = O f.x k x 1 ; b   = R < ; z.l e 0 7 y 9 9 t 9 9 9 h 9 9 0 o 8 8 + t 0 t + b P 0 8.t 8 6 o 8 z ",
"#.x.  * < c.2 _ . _ v.l.m . & + y j j.3 ; a ! | a O - 3 3 x ..l ) 9 7 t t 9 9 q 0 t h 9 9 0 o 0 t t + 0 y o 3 c.y i N t 7 o 8 < ",
"x.k O z < b.3 7.T n.C g l.f ` K F 0 j z 4 4   < 2 - 3 3 2 O [ ! . h 6 ~ t q o 0 8 0 9 9 N T T Z v n.v & N + 2 > o i h o 8 0 y b ",
"x P x = = : ; _ t y N X J H k.i ) r y 0 o o 7 7 j j s z j ; [ 3 X 9 o j 7 o o y z o o o h & ) . ) u X u & N 7 x m.,.z = = j j a ",
"+.o...: P +.p.t O O 2 j 0 I . X X T 7 =   2 3 3 a ; 3 3 3 ; +.P y = 3 ; x f.3 O t.l l l ; = 0 N 9 N I v n.h + 7 a 1 c P t.k #.M.",
"N.B.V.C.X...Z.A.o.> > [ P a z h I S.^ 2 ; k +.w c +.: : ] c.A...> : [ [ l ; = 2 k l A.D.O < j o j 0 h T Z u Z ) T 5.= ; a F.; G.",
") =.5.j o =.8.U 9.X e.A i e.<.H 3.D N H.J.K.f _ e.8.w.8.6.6.X e.8.w.X Q e.J <.<.8.e 2 : Z 7.A J L % L L.d.q.P.u.u.I.U.l.# J J _ ",
"-.=.9   2 0 T v Z Q X w.-.Z X d U T   >.Y.0.T.L.% . & & Z ) v T I E T I I *.I R.a.  c %.v ,.I I , R.N E.v Z 9.W.;.T.q.# C . & I ",
"t 6 z 2 t.l 2 j y q t I t 8 ~ t y 3 Q.7.!.J l.g _ n.9 y 8 0 y 0 ~ 0 o 9 9 9 9 t 2 a > ..T Z t 9 0 + 9 o 9 h t r u _ g l.J U I 8 ",
"0 y 0 z O k k O 5 8 t t 0 0 9 t z x ~.. X n S d.;._ I 0 q 8 8 0 t h 9 t t 9 q 0 < f.> o.N I 0 t 0 o 0 q t 0 0 9 9 T C g K.J u N ",
"0 t q 7 < 3 k P f.  o 9 9 0 0 0 < x ~.Z e 0 v f K.k.v 0 8 y 8 0 t 0 y 0 8 q 9 0 o   [ X.^.0 7 t y y 0 0 0 y 0 0 9 + N . h.K.f . ",
"I 0 8 o o < ; l P k 2 z y 0 q o < a ..X Z o 9 B g # . 9 t q 8 0 t 0 9 0 o o y y y < P /.(.< 2 = R o y 0 y y 0 o q y o r i ;.;.% ",
") 9 q q q 7 < 3 x.l x 1 5 R * 8 o 1 z.X Z y + u f J ) 9 9 q y 0 0 9 9 t q 8 q o 7 7 x ).o m.x k ;   < 0 t 0 0 o o o o t v S ;.V ",
"` r q 9 t q 7 j ; a x.l x 1   s j x.%.Q -.0 + & d X r o y q t q q 9 9 t q o 8 q o 7 1 +.I  .3 O k a O   z t 0 q o o o y ~ u # T.",
"H Z 0 9 t 0 y o z s j.a | x O ; ! [ X.I & q o t I W ~ 8 y 0 t o o q 9 t 8 o y q 8 y j._.G I z < O a k x O z 0 9 0 y 8 8 q h X `.",
"l.u ~ t h 9 9 t q 8 j 5   = ; a f.> '.t R.7 y 8 + 0 q q y y o 8 y y 9 9 0 8 t y 8 0   ] & *.o < s < ; t.P l = z 0 0 o o o 7 r J ",
"_ v 7 < s < < j < < = 2 2   1 k #.: X.t t 2   = j < * s = z < < j z j o j < < < <   x ] & r = ; ; ; x P > ..A.c x O O ; O a 3 r ",
"Y 7 x P P P P P ] P P P P P c c } [ ].c +.c P +.: c P +.O.+.O.#.P #.P k f.F.3 3 3 3 3 #.P c [ %.[ [ A.A.[.{.C.C.N.z.> c.[ w w - ",
"9.r ^.j o [ P o { { z o o 7 < j < < }.< }.}.o o < j o z j j : ] 7 o o 9 $.T & & U f l.;.f % % 9.u n Z I E.~   X.> o r & v -.) u ",
":.H 6.% i l   |.<.% 7.<.L <.<.L _ A <.A _ A J L i <.7.7.7.J l  XL.!.L W.g .X.XL..X3.U.g.q.XXq.;.oXL 6.Q X . h A.P 5.R.,.w.d C 9.",
"Z I 9 t o P 2 A v v r N N 9 9 9 h 9 h r h 9 N r N Y Y 9 h y a 4 J u 9 q r & W W I & u U / OXS H S ` G h + y ; A.G.^.&.7 0 t 0 q ",
"0 + 9 0 s [ 3 A I t + t 8 o 7 7 t 0 9 9 t o 0 9 t 8 6 0 y z P (.S v + 7 o q o o 0 y t W v G X S g g k.C v r = +.s t l x.= t + y ",
"0 0 t t j P < _ N 7 o 0 0 8 8 8 9 t t t h y t 9 0 j z o o = [ b i I + 6 6 o o o o 6 q t 9 t N ) C f v.V S ) 0 #.o T x [ a 7 0 q ",
"q q 0 0 z P 2 i h o o o 0 0 0 t 9 0 q 9 9 0 + t 0 4 s z y 4 +.j.6.r 8 o z o o 7 7 0 t 0 t 0 t N N ) % i.l.S Z ; o ,.3 w #.= y q ",
"9 t y o < P 2 i p 0 0 t 0 0 t 0 t 0 t h q 0 y 7 R 2   < o   P 3 X F t t 0 9 h 9 0 0 o 8 0 q 0 9 0 t E X k.# i 0 r 8.j a w a R 0 ",
"y o 7 o < [ j.i h y 8 ~ + t 9 9 t 0 y t y + h 7 2 O b j 0 j l +XX h t 9 9 9 t 9 t y o y q 0 0 0 9 0 q h ) i J ) C H 0 1 P k = t ",
"o o j y j : 2 i 9 0 0 r h h 9 t 9 0 8 8 8 y t j 3 f.j.y 0 j #.  U r q 9 9 t 0 9 9 y y 0 + 0 0 9 + 8 8 0 t v _ U $ T.I = l k ; o ",
"q 8 o q * c 2 6.N 9 0 9 9 h t 0 9 0 t 0 6 0 y   O k ; y 0 s P 3 d t o o 7 o o o * s j < 7 y * y q y 8 0 y + Z Z g s.U t a P l < ",
"o o o 8 * c (.J N R < o 8 7 6 7 0 o o o 6 o o 3 k : c ; = 3 A.k 8.h = 3 O a O O O O x a ; O a 3   < z o o 6 y y f u.i.r x +.[ l ",
"a 1 a O O [ G.q 2 1 a O O l k k a x f.x k x O #.[ %.@XA.+.] o...= ; l : > : : : c : [ : > %...%.%.A.> [ c +.' G.7 X B I k ..{.#X",
"A.c.: > : %.} : : c c.O.: %.%.A.A.: : %.: > c.> ..X.X.{.#XN.N.{...A.%.$XN.$X....A...%.D.> p.[ [ : A...A.c P %X&X2 N C U t l o.~.",
"d X d i C U d C e.e.e.<.i d C C i 0 : , d w.w.C w.u ) u Z u ) Q d 6.e.w.8.8.8.w.U X I k & A w.u ,., t t t R.-.d _ H s.*Xs.% R.t ",
"Z Z Q ,.9.X . -.. ) -.u . Q u X X o [.=X8.Q Z ,.Z Z ) X ,.X Q -.u Q ) Q u ,.& v v ) N < <.A u ) & r y z   O   z -Xh C d.q.i y 3 ",
"q 0 9 q + + q o 9 9 0 0 t t 0 ~ h 2 ~.e v o 7 y 7 y t + 0 0 0 8 7 7 y ~ F F N I v Z h y H f X X . u I ~ R 1 x t.x 3 y ( g f 8 ! ",
"o o q 8 0 8 o j o 0 9 9 y 0 0 t ~ 3 : X ,.0 y 0 ~ y o o o 0 9 t y q + r T T E E G . T + 6.H ` ;XOX_ d X ) + R ; x x.2 y % l.G = ",
"o o o q 9 t 9 0 0 o y + q q y y t 3 > d Z y q y y o y 0 o 8 y q 0 0 t F W p h t h T t :Xo S u . X ` d C _ ;Xu W 7 ! | 3 h / ( * ",
"o o 6 y q 0 9 0 8 o y o q 8 y 8 9 < : 9.Q 8 o 8 o q 9 0 o o 6 6 q 0 t N N N t 0 8 t < [ 3 u N N I n.& ) X i i % u 7   O 4 T =Xo ",
"y 8 8 o 7 t 9 9 y 8 8 o 8 o o 8 0 < [ u X y 7 9 h 0 t 7 z z z 7 8 8 y + q 9 0 8 8 0 < w = Q + o 0 0 9 Y N K M _ % . h z 4 7 p 0 ",
"0 0 o 8 0 9 9 0 t 0 8 8 o o y 0 o 3 [ u Z y o 9 9 9 8 7 s s R 7 o 7 8 o 8 0 8 8 6 0 < +.< . 9 o y 9 t 6 7 o h Z C U . T 8 o + ~ ",
"9 9 o 7 t 9 9 0 9 q q 9 0 9 0 0 o 2 p.) Q 0 y t 9 t * z j < 6 y o z o t 0 8 8 o z ~ < #.j =.z < s R o 7 4 = z o 9 t N T t 0 8 9 ",
"t y o o 9 9 9 y 0 8 9 t o z 7 7 R 3 [ Z -.t N 9 + * j j 7 7 7 o o y o o o o 0 y o o 3 [ 3 , s j.; j.    3 3 2 2 =   5 R 7 j z j ",
"o 7 j < < = j j s j o < < ; ; 2 < ; O.e Z 7 7 < 5 2 b ;   <     = * <   = < j       x A.k r   a x a 1 1 O k a a ! | k ; j.a 2 x ",
"+.[ : c.[ P +.c c.P [ : +.A.: #.> A.%.: P [ c : > %.> A.> [ +.P c [ : } M.> [ : > A.A.N.>X: } > : c.c c [ > [ c +.#.: c > > : %.",
"< < < < j x k m.< j <   j 2 < 6 =   }.< j j < O k a =   < j k @.  < = }.<   = 2 ; O 2 2   = = j < p Q . X w.,.y 2 d d e N I r 4.",
"i A i S % s { S J 6.i i A C i i <.i e.i S <.8.v R.v e.7.7.L o : 8.J 7.7.S _ 8.w.w.6.8.8.X e.9.X U 6.i C <.S C 0 O _ 7.u T Z ) ) ",
"Y ~ t 9 ~ a ; 6.N 9 9 9 r h 9 h h h r 9 Y N 6 2 3 7 9 r r y x A.X 9.N I W I t t h N 9 0 y 0 q q t h Y t 9 Y o ; l u & j j o h 0 ",
"q 8 q 0 7 x.w X N 8 t 0 N 9 y o t t 8 q t o 2 l a s + 9 q 7 t.A.d d h + h h q y t y 8 t q y y 7 t ~ t 0 0 t j O #.) N s R ~ + R ",
"h o 0 t y k P X 9 8 y 8 o q 8 q y o 8 o 8 o = x j.6 8 0 0 o x c C d N + q t 0 0 t 7 0 0 t y o z t t t o Y t z O +.u r s q T t < ",
"t o 9 t o x +.X N o o t o y o y 8 8 0 t 8 j 3 x b y 0 t 0 z a P S C I h q 0 y o y * 6 8 t o z y 0 q y + I h j x A., r o E G 8 2 "
};
